<svg xmlns="http://www.w3.org/2000/svg" width="417.578" height="63.5" viewBox="0 0 417.578 63.5">
  <g id="Grupo_3" data-name="Grupo 3" transform="translate(-198 -65.5)">
    <text id="Loja_Rodrigues" data-name="Loja Rodrigues" transform="translate(264.578 70)" fill="#fff" font-size="50" font-family="'\.AppleSystemUIFont'" font-weight="700"><tspan x="0" y="48">Loja Rodrigues</tspan></text>
    <path id="Icon_awesome-shopping-bag" data-name="Icon awesome-shopping-bag" d="M45.24,19.844V15.875C45.24,7.121,37.86,0,28.789,0S12.338,7.121,12.338,15.875v3.969H0V53.578A10.107,10.107,0,0,0,10.282,63.5H47.3a10.107,10.107,0,0,0,10.282-9.922V19.844ZM20.564,15.875a8.231,8.231,0,0,1,16.451,0v3.969H20.564ZM41.127,30.758a2.978,2.978,0,1,1,3.085-2.977A3.032,3.032,0,0,1,41.127,30.758Zm-24.676,0a2.978,2.978,0,1,1,3.085-2.977A3.032,3.032,0,0,1,16.451,30.758Z" transform="translate(198 65.5)" fill="#f8f8f8"/>
  </g>
</svg>
